<?xml version="1.0" standalone="no"?>
<!DOCTYPE svg PUBLIC "-//W3C//DTD SVG 20010904//EN"
 "http://www.w3.org/TR/2001/REC-SVG-20010904/DTD/svg10.dtd">
<svg version="1.0" xmlns="http://www.w3.org/2000/svg"
 width="165.000000pt" height="169.000000pt" viewBox="0 0 165.000000 169.000000"
 preserveAspectRatio="xMidYMid meet">

<g transform="translate(0.000000,169.000000) scale(0.100000,-0.100000)"
fill="#000000" stroke="none">
<path d="M0 845 l0 -845 825 0 825 0 0 845 0 845 -825 0 -825 0 0 -845z m1035
744 c130 -39 221 -95 321 -194 77 -76 98 -105 137 -185 51 -103 73 -178 83
-278 l7 -65 -39 7 c-50 10 -58 17 -78 71 -21 53 -86 101 -153 111 -97 14 -224
-20 -265 -71 -11 -14 -24 -22 -30 -19 -6 4 -8 2 -4 -4 3 -6 2 -13 -4 -17 -6
-4 -8 -11 -4 -16 3 -6 12 -5 21 3 13 10 15 9 11 -7 -2 -13 -12 -20 -28 -20
-20 0 -25 -6 -27 -35 -9 -88 155 -155 245 -100 40 24 66 81 58 124 -9 48 -38
95 -61 99 -16 4 -15 5 5 6 51 2 105 -21 143 -62 35 -38 37 -44 33 -90 l-5 -49
42 7 c23 4 62 14 85 22 24 8 46 12 48 10 3 -3 0 -36 -6 -73 -29 -175 -90 -295
-215 -420 -76 -77 -105 -98 -185 -137 -119 -59 -201 -80 -315 -81 -125 -1
-190 9 -269 38 -126 48 -187 87 -282 181 -77 76 -98 105 -137 185 -65 131 -81
200 -81 340 0 133 16 208 71 320 43 90 78 142 129 193 l39 39 6 -34 c6 -33 6
-32 8 9 1 37 6 45 49 76 58 42 181 102 243 118 41 11 50 10 75 -6 l29 -18 -18
21 c-18 20 -18 21 10 25 62 11 239 -2 308 -24z m265 -569 c0 -5 -4 -10 -10
-10 -5 0 -10 5 -10 10 0 6 5 10 10 10 6 0 10 -4 10 -10z m-30 -135 c0 -64 -16
-63 -17 1 -1 31 2 52 8 49 5 -4 9 -26 9 -50z m-169 20 c0 -5 -12 -11 -26 -13
-18 -2 -25 1 -25 13 0 12 7 15 25 13 14 -2 26 -7 26 -13z m-61 -25 c0 -5 -4
-10 -10 -10 -5 0 -10 5 -10 10 0 6 5 10 10 10 6 0 10 -4 10 -10z m59 -88 c27
-2 65 1 83 8 18 6 44 13 58 16 l25 4 -28 -25 c-23 -21 -38 -25 -86 -25 -71 0
-118 15 -133 44 -11 21 -11 21 10 2 13 -11 43 -21 71 -24z"/>
<path d="M390 1090 c-49 -6 -80 -20 -123 -56 -30 -26 -63 -30 -114 -15 l-32 9
20 -35 c24 -43 70 -84 87 -78 7 3 10 1 7 -4 -3 -5 -1 -12 5 -16 6 -4 10 9 10
32 0 21 8 47 18 59 24 30 77 64 98 64 15 0 13 -5 -9 -28 -62 -64 0 -212 89
-212 9 0 14 -6 11 -13 -3 -9 13 -4 43 12 44 23 52 25 81 14 20 -8 29 -9 22 -2
-7 7 -8 22 -2 44 7 26 5 46 -12 89 -11 31 -27 63 -36 71 -36 37 -84 67 -97 62
-8 -3 -16 -3 -18 1 -2 4 -23 5 -48 2z m50 -70 c0 -5 -4 -10 -10 -10 -5 0 -10
5 -10 10 0 6 5 10 10 10 6 0 10 -4 10 -10z m-30 -20 c0 -15 -26 -23 -41 -14
-9 5 -7 10 7 15 27 11 34 10 34 -1z m79 -19 c19 -12 6 -41 -18 -41 -23 0 -35
15 -27 35 6 17 24 19 45 6z m-54 -140 c37 -20 38 -21 10 -16 -35 7 -77 35 -83
56 -4 11 -1 10 14 -2 10 -9 37 -26 59 -38z"/>
<path d="M885 1040 c-3 -5 -1 -10 4 -10 6 0 11 5 11 10 0 6 -2 10 -4 10 -3 0
-8 -4 -11 -10z"/>
<path d="M881 984 c0 -11 3 -14 6 -6 3 7 2 16 -1 19 -3 4 -6 -2 -5 -13z"/>
<path d="M273 795 c-3 -9 -3 -18 -1 -21 3 -3 8 4 11 16 6 23 -1 27 -10 5z"/>
<path d="M340 799 c-14 -4 -20 -7 -13 -8 6 -1 14 -15 18 -31 7 -32 19 -33 27
-2 9 32 -5 49 -32 41z"/>
<path d="M643 794 c-22 -10 -14 -33 20 -64 34 -33 27 -32 167 -13 41 5 59 16
60 35 0 22 -212 58 -247 42z"/>
<path d="M991 761 c13 -11 26 -17 28 -15 5 5 -30 33 -43 34 -4 0 2 -9 15 -19z"/>
<path d="M1350 770 c0 -5 9 -10 19 -10 11 0 28 -11 39 -25 11 -14 23 -25 26
-25 14 0 4 22 -19 45 -24 25 -65 34 -65 15z"/>
<path d="M400 760 c-13 -8 -12 -10 3 -10 9 0 17 5 17 10 0 12 -1 12 -20 0z"/>
<path d="M448 763 c6 -2 18 -2 25 0 6 3 1 5 -13 5 -14 0 -19 -2 -12 -5z"/>
<path d="M1270 739 c0 -7 3 -9 7 -6 4 4 20 -5 36 -20 l29 -28 -13 28 c-7 15
-16 27 -20 27 -4 0 -14 3 -23 6 -10 4 -16 1 -16 -7z"/>
<path d="M1041 694 c0 -11 3 -14 6 -6 3 7 2 16 -1 19 -3 4 -6 -2 -5 -13z"/>
<path d="M1167 688 c-7 -27 7 -30 19 -4 8 17 7 23 -2 23 -7 0 -15 -9 -17 -19z"/>
<path d="M653 670 c-13 -5 -23 -12 -23 -15 0 -4 5 -3 10 0 6 3 10 0 10 -7 1
-8 7 -5 16 7 14 19 15 19 20 -3 7 -26 24 -30 24 -5 0 14 3 14 22 -3 l22 -19
-20 27 c-20 28 -43 33 -81 18z"/>
<path d="M1010 625 c-14 -15 -30 -23 -40 -20 -12 5 -13 4 -2 -7 10 -10 18 -6
44 20 18 18 30 32 27 32 -3 0 -16 -11 -29 -25z"/>
<path d="M604 609 c-10 -11 -26 -18 -36 -16 -10 3 -16 1 -12 -4 9 -16 30 -10
54 16 13 14 21 25 18 25 -3 0 -13 -9 -24 -21z"/>
<path d="M668 548 c6 -6 18 -8 28 -6 14 3 12 5 -9 10 -19 3 -25 2 -19 -4z"/>
</g>
</svg>
